# xmcd
#
# Track frame offsets:
#	150
#	11729
#	29517
#	44712
#	60168
#	75314
#	89232
#	100451
#	113495
#	126139
#	142245
#	156668
#	166517
#	180508
#	190033
#
# Disc length: 2778 seconds
#
# Revision: 1
# Processed by: cddbd v1.5.1PL0 Copyright (c) Steve Scherf et al.
# Submitted via: EasyCDDAExtractor 7.1.0.1
#
DISCID=c60ad80f
DTITLE=Various Artist folklore nuestra musica - los manseros santiagueños
DYEAR=2004
DGENRE=
TTITLE0=escondido de reza baile
TTITLE1=el amigo de los pajaros
TTITLE2=pájaro campana
TTITLE3=tú que puedes, vuelvete
TTITLE4=caña doble
TTITLE5=tacita de plata
TTITLE6=el encadenado
TTITLE7=rio manso
TTITLE8=gaviota de puerto
TTITLE9=virgen de la carrodilla
TTITLE10=resolana
TTITLE11=chacarera del patio
TTITLE12=la salamanca
TTITLE13=caballo que no galopa
TTITLE14=cancion de caminantes
EXTD=
EXTT0=
EXTT1=
EXTT2=
EXTT3=
EXTT4=
EXTT5=
EXTT6=
EXTT7=
EXTT8=
EXTT9=
EXTT10=
EXTT11=
EXTT12=
EXTT13=
EXTT14=
PLAYORDER=
